<?xml version="1.0" encoding="UTF-8" standalone="no"?>
<!-- Created with Inkscape (http://www.inkscape.org/) -->

<svg
   width="84.965385mm"
   height="22.830606mm"
   viewBox="0 0 84.965385 22.830606"
   version="1.1"
   id="svg5"
   sodipodi:docname="logo_Light.svg"
   inkscape:version="1.2.2 (b0a8486541, 2022-12-01)"
   xmlns:inkscape="http://www.inkscape.org/namespaces/inkscape"
   xmlns:sodipodi="http://sodipodi.sourceforge.net/DTD/sodipodi-0.dtd"
   xmlns:xlink="http://www.w3.org/1999/xlink"
   xmlns="http://www.w3.org/2000/svg"
   xmlns:svg="http://www.w3.org/2000/svg">
  <sodipodi:namedview
     id="namedview7"
     pagecolor="#ffffff"
     bordercolor="#666666"
     borderopacity="1.0"
     inkscape:showpageshadow="2"
     inkscape:pageopacity="0.0"
     inkscape:pagecheckerboard="true"
     inkscape:deskcolor="#d1d1d1"
     inkscape:document-units="mm"
     showgrid="false"
     inkscape:zoom="2.2601823"
     inkscape:cx="204.62951"
     inkscape:cy="82.294247"
     inkscape:window-width="1920"
     inkscape:window-height="1017"
     inkscape:window-x="1920"
     inkscape:window-y="326"
     inkscape:window-maximized="1"
     inkscape:current-layer="text534" />
  <defs
     id="defs2">
    <inkscape:perspective
       sodipodi:type="inkscape:persp3d"
       inkscape:vp_x="27.630587 : -61.581536 : 1"
       inkscape:vp_y="0 : 258.53686 : 0"
       inkscape:vp_z="77.044849 : -61.581536 : 1"
       inkscape:persp3d-origin="52.33772 : -74.379115 : 1"
       id="perspective574" />
    <inkscape:perspective
       sodipodi:type="inkscape:persp3d"
       inkscape:vp_x="0.31257717 : -125.46102 : 1"
       inkscape:vp_y="0 : 999.99991 : 0"
       inkscape:vp_z="40.377604 : -43.375847 : 1"
       inkscape:persp3d-origin="105.31258 : -174.96102 : 1"
       id="perspective502" />
    <linearGradient
       inkscape:collect="always"
       id="linearGradient3997">
      <stop
         style="stop-color:#78ff9f;stop-opacity:1;"
         offset="0"
         id="stop3993" />
      <stop
         style="stop-color:#000000;stop-opacity:0.03913718;"
         offset="1"
         id="stop3995" />
    </linearGradient>
    <rect
       x="142.8737"
       y="48.985806"
       width="364.1593"
       height="71.797249"
       id="rect536" />
    <inkscape:perspective
       sodipodi:type="inkscape:persp3d"
       inkscape:vp_x="735.16976 : -30.681209 : 1"
       inkscape:vp_y="0 : 319.46478 : 0"
       inkscape:vp_z="41.411616 : -9.2508905 : 1"
       inkscape:persp3d-origin="454.82894 : -46.494727 : 1"
       id="perspective410" />
    <inkscape:perspective
       sodipodi:type="inkscape:persp3d"
       inkscape:vp_x="-75.664058 : -103.12686 : 1"
       inkscape:vp_y="0 : 999.99991 : 0"
       inkscape:vp_z="134.33593 : -103.12686 : 1"
       inkscape:persp3d-origin="29.335939 : -152.62686 : 1"
       id="perspective394" />
    <inkscape:perspective
       sodipodi:type="inkscape:persp3d"
       inkscape:vp_x="-55.522056 : -109.62476 : 1"
       inkscape:vp_y="0 : 999.99991 : 0"
       inkscape:vp_z="129.00588 : -109.62476 : 1"
       inkscape:persp3d-origin="36.741909 : -159.12476 : 1"
       id="perspective378" />
    <inkscape:perspective
       sodipodi:type="inkscape:persp3d"
       inkscape:vp_x="0 : -125.66939 : 1"
       inkscape:vp_y="0 : 999.99991 : 0"
       inkscape:vp_z="210 : -125.66939 : 1"
       inkscape:persp3d-origin="105 : -175.16939 : 1"
       id="perspective240" />
    <inkscape:perspective
       sodipodi:type="inkscape:persp3d"
       inkscape:vp_x="25.079592 : -0.60476123 : 1"
       inkscape:vp_y="0 : 81.469421 : 0"
       inkscape:vp_z="43.601627 : 4.8603683 : 1"
       inkscape:persp3d-origin="32.564163 : -4.6375009 : 1"
       id="perspective410-4" />
    <radialGradient
       inkscape:collect="always"
       xlink:href="#linearGradient3997"
       id="radialGradient4012"
       cx="31.14868"
       cy="21.305155"
       fx="31.14868"
       fy="21.305155"
       r="8.9297609"
       gradientTransform="matrix(1,0,0,1.172272,0,-3.6702819)"
       gradientUnits="userSpaceOnUse" />
    <radialGradient
       inkscape:collect="always"
       xlink:href="#linearGradient3997"
       id="radialGradient4020"
       cx="31.14868"
       cy="21.305155"
       fx="31.14868"
       fy="21.305155"
       r="8.9297609"
       gradientTransform="matrix(1,0,0,1.172272,0,-3.6702819)"
       gradientUnits="userSpaceOnUse" />
    <radialGradient
       inkscape:collect="always"
       xlink:href="#linearGradient3997"
       id="radialGradient4028"
       cx="31.14868"
       cy="21.305155"
       fx="31.14868"
       fy="21.305155"
       r="8.9297609"
       gradientTransform="matrix(1,0,0,1.172272,0,-3.6702819)"
       gradientUnits="userSpaceOnUse" />
    <radialGradient
       inkscape:collect="always"
       xlink:href="#linearGradient3997"
       id="radialGradient4036"
       cx="31.14868"
       cy="21.305155"
       fx="31.14868"
       fy="21.305155"
       r="8.9297609"
       gradientTransform="matrix(1,0,0,1.172272,0,-3.6702819)"
       gradientUnits="userSpaceOnUse" />
    <radialGradient
       inkscape:collect="always"
       xlink:href="#linearGradient3997"
       id="radialGradient4044"
       cx="31.14868"
       cy="21.305155"
       fx="31.14868"
       fy="21.305155"
       r="8.9297609"
       gradientTransform="matrix(1,0,0,1.172272,0,-3.6702819)"
       gradientUnits="userSpaceOnUse" />
    <radialGradient
       inkscape:collect="always"
       xlink:href="#linearGradient3997"
       id="radialGradient4052"
       cx="31.14868"
       cy="21.305155"
       fx="31.14868"
       fy="21.305155"
       r="8.9297609"
       gradientTransform="matrix(1,0,0,1.172272,0,-3.6702819)"
       gradientUnits="userSpaceOnUse" />
    <inkscape:perspective
       sodipodi:type="inkscape:persp3d"
       inkscape:vp_x="26.123248 : -61.669086 : 1"
       inkscape:vp_y="0 : 282.68007 : 0"
       inkscape:vp_z="80.152013 : -61.669086 : 1"
       inkscape:persp3d-origin="53.137635 : -75.661764 : 1"
       id="perspective574-3" />
    <inkscape:perspective
       sodipodi:type="inkscape:persp3d"
       inkscape:vp_x="24.926888 : -60.095396 : 1"
       inkscape:vp_y="0 : 270.19732 : 0"
       inkscape:vp_z="90.904896 : -60.095396 : 1"
       inkscape:persp3d-origin="57.9159 : -73.470175 : 1"
       id="perspective574-3-9" />
    <inkscape:perspective
       sodipodi:type="inkscape:persp3d"
       inkscape:vp_x="26.687925 : -57.367686 : 1"
       inkscape:vp_y="0 : 250.3077 : 0"
       inkscape:vp_z="74.529345 : -57.367686 : 1"
       inkscape:persp3d-origin="50.608641 : -69.757935 : 1"
       id="perspective574-3-0" />
    <inkscape:perspective
       sodipodi:type="inkscape:persp3d"
       inkscape:vp_x="39.530533 : -42.464977 : 1"
       inkscape:vp_y="0 : 68.404543 : 0"
       inkscape:vp_z="52.604723 : -42.464977 : 1"
       inkscape:persp3d-origin="46.067629 : -45.851007 : 1"
       id="perspective574-2" />
    <inkscape:perspective
       sodipodi:type="inkscape:persp3d"
       inkscape:vp_x="39.648944 : -43.317997 : 1"
       inkscape:vp_y="0 : 68.404543 : 0"
       inkscape:vp_z="52.723134 : -43.317997 : 1"
       inkscape:persp3d-origin="46.18604 : -46.704027 : 1"
       id="perspective574-28" />
    <inkscape:perspective
       sodipodi:type="inkscape:persp3d"
       inkscape:vp_x="39.647742 : -43.995207 : 1"
       inkscape:vp_y="0 : 68.404543 : 0"
       inkscape:vp_z="52.721932 : -43.995207 : 1"
       inkscape:persp3d-origin="46.184838 : -47.381237 : 1"
       id="perspective574-9" />
  </defs>
  <g
     inkscape:label="Réteg 1"
     inkscape:groupmode="layer"
     id="layer1"
     transform="translate(-18.105454,-10.862791)">
    <g
       aria-label="JobTraq"
       transform="matrix(0.47535571,0,0,0.47535571,-22.990935,-13.270883)"
       id="text534"
       style="font-size:40px;line-height:1.25;font-family:Likhan;-inkscape-font-specification:'Likhan, Normal';white-space:pre;shape-inside:url(#rect536);display:inline;fill:#ffffff">
      <path
         d="m 153.2832,60.652932 h 3.33985 v 19.6875 q 0,3.886719 -2.51953,5.898437 -1.91407,1.503907 -4.86329,1.503907 -3.86718,0 -5.85937,-2.421875 -1.46484,-1.796875 -1.46484,-4.550782 v -2.265625 h 3.39843 v 1.660157 q 0,3.613281 2.40235,4.511718 0.68359,0.253907 1.54297,0.253907 1.73828,0 2.8125,-1.132813 0.21484,-0.234375 0.39062,-0.488281 0.76172,-1.152344 0.80078,-3.671875 0.0195,-0.234375 0.0195,-0.507813 z"
         id="path313" />
      <path
         d="m 167.0918,66.824807 q 4.84375,0 7.03125,3.691406 1.52343,2.558594 1.52343,6.5625 0,5.195313 -2.83203,7.871094 -2.01172,1.894531 -5.09765,2.070312 -0.29297,0.01953 -0.60547,0.01953 -4.51172,0 -6.77735,-3.339844 -1.75781,-2.597656 -1.75781,-6.757813 0,-5.390625 2.91016,-8.085937 2.1875,-2.03125 5.60547,-2.03125 z m 0.0195,2.753906 q -2.91016,0 -4.33594,2.578125 -1.05469,1.894531 -1.05469,4.785156 0,4.316407 2.20703,6.210938 1.3086,1.113281 3.1836,1.113281 2.87109,0 4.33594,-2.5 1.07421,-1.855469 1.07421,-4.707031 0,-4.550781 -2.30468,-6.445313 -1.26953,-1.035156 -3.10547,-1.035156 z"
         id="path315" />
      <path
         d="m 177.11133,60.652932 h 2.96875 v 9.921875 q 1.91406,-2.890625 5.35156,-3.046875 0.23438,-0.01953 0.46875,-0.01953 3.96484,0 6.15234,2.96875 1.9336,2.636718 1.9336,6.894531 0,5.058594 -2.5586,7.910156 -0.27343,0.3125 -0.5664,0.566406 -0.0195,0.03906 -0.0586,0.05859 -2.07031,1.835938 -5.03906,1.835938 -3.65234,0 -5.74219,-2.910157 -0.11718,-0.15625 -0.23437,-0.332031 v 2.402344 h -2.67578 z m 8.22265,9.667969 q -2.61718,0 -4.0625,2.363281 l -0.0195,0.01953 q -1.17187,1.933594 -1.17187,4.902344 0,3.964844 1.95312,5.957031 1.34766,1.367188 3.30078,1.367188 2.61719,0 4.16016,-2.226563 1.34766,-1.953125 1.34766,-4.980469 0,-3.984375 -2.03125,-5.996093 -1.40625,-1.40625 -3.47657,-1.40625 z"
         id="path317" />
      <path
         d="m 205.66602,63.699807 v 23.28125 h -3.35938 v -23.28125 h -8.63281 v -2.96875 h 20.5664 v 2.96875 z"
         id="path319" />
      <path
         d="m 215.91992,67.449807 h 2.77344 v 3.417969 q 1.79687,-2.910157 3.51562,-3.632813 0.76172,-0.332031 1.64063,-0.332031 0.44922,0 1.15234,0.09766 v 3.066406 q -2.36328,0.05859 -3.45703,0.625 -0.23437,0.136719 -0.48828,0.3125 -2.10937,1.523438 -2.10937,5.507813 v 9.804687 h -3.02735 z"
         id="path321" />
      <path
         d="m 242.61914,84.461526 v 2.246093 q -1.17187,0.332032 -2.08984,0.332032 -2.28516,0 -2.85157,-1.71875 -0.15625,-0.46875 -0.21484,-1.054688 -2.59766,2.34375 -5.21484,2.695313 -0.58594,0.07813 -1.21094,0.07813 -3.41797,0 -5.07813,-2.109375 -1.11328,-1.40625 -1.11328,-3.457032 0,-3.710937 3.28125,-5.039062 1.17188,-0.449219 3.24219,-0.761719 0.95703,-0.15625 2.83203,-0.410156 2.34375,-0.273438 2.89063,-1.074219 0.2539,-0.390625 0.2539,-0.996094 v -0.800781 q 0,-1.953125 -2.22656,-2.578125 -0.85937,-0.234375 -1.99219,-0.234375 -3.39843,0 -4.19922,2.226563 0,0.03906 -0.0195,0.07813 -0.15625,0.46875 -0.21484,1.035156 h -3.02734 q 0.0976,-2.324219 1.05468,-3.59375 0.11719,-0.136719 0.23438,-0.292969 1.66015,-1.835937 5.09765,-2.148437 0.58594,-0.05859 1.19141,-0.05859 5.54688,0 6.75781,3.242187 0.3125,0.839844 0.3125,1.875 v 11.113282 q 0,1.308593 1.32813,1.464843 0.13672,0 0.29297,0 0.33203,0 0.68359,-0.05859 z m -5.27344,-4.179688 v -3.378906 q -0.99609,0.46875 -2.83203,0.742187 -0.64453,0.09766 -2.03125,0.292969 -3.30078,0.507813 -4.14062,1.953125 -0.3711,0.625 -0.3711,1.523438 0,1.953125 1.77735,2.675781 0.83984,0.351562 1.95312,0.351562 2.5586,0 4.45313,-1.71875 1.01562,-0.976562 1.15234,-1.933593 0.0391,-0.234375 0.0391,-0.507813 z"
         id="path323" />
      <path
         d="m 259.20117,93.367776 h -3.00781 V 83.348244 q -1.73828,2.539063 -4.58984,2.910157 -0.58594,0.07813 -1.21094,0.07813 -4.02344,0 -6.19141,-3.027344 -1.875,-2.617188 -1.875,-6.875 0,-4.941406 2.5,-7.792969 2.20703,-2.519531 5.70313,-2.519531 3.49609,0 5.66406,2.617187 0.17578,0.214844 0.33203,0.429688 v -2.519531 h 2.67578 z m -8.22265,-24.433594 q -2.65625,0 -4.17969,2.285156 -0.0195,0.01953 -0.0195,0.01953 -0.87891,1.308594 -1.17188,3.164063 -0.13672,0.878906 -0.13672,1.835937 0,3.769532 1.95313,5.800782 1.44531,1.484375 3.55469,1.484375 2.59765,0 4.04296,-2.324219 1.17188,-1.914063 1.17188,-4.84375 0,-4.140625 -2.01172,-6.132813 -1.30859,-1.289062 -3.20312,-1.289062 z"
         id="path325" />
    </g>
    <path
       id="path782"
       style="fill:#ffffff;stroke:#ffffff;stroke-width:0.058;fill-opacity:1;stroke-dasharray:none;stroke-opacity:1"
       inkscape:transform-center-x="0.26000913"
       inkscape:transform-center-y="-0.730375"
       d="m 28.484566,10.893392 c -0.424826,0.06639 -0.842538,0.154109 -1.251603,0.26355 l 1.768368,1.856734 -10.604521,7.21558 c -0.115958,0.48346 -0.202089,0.976288 -0.256832,1.476396 l 1.705839,-0.817521 3.473173,11.928471 c 0.447952,0.306025 0.916071,0.582954 1.401982,0.826306 l -0.215491,-1.613855 12.47314,0.384472 c 0.42053,-0.331613 0.81746,-0.690898 1.188042,-1.075386 l -1.625224,-0.298173 4.902543,-13.641545 c -0.18101,-0.328849 -0.376191,-0.648727 -0.584461,-0.959114 l -1.53944,2.848405 -0.876433,-0.679029 c 0.05642,0.09452 0.11165,0.190157 0.164848,0.286804 l -3.611666,10.049516 1.19786,0.219625 c -0.27301,0.283257 -0.56559,0.548414 -0.875399,0.792717 l -9.189103,-0.283187 0.158647,1.188558 c -0.357976,-0.17928 -0.703003,-0.382779 -1.033012,-0.608232 l -2.5585,-8.788611 -1.256771,0.602547 c 0.04033,-0.368434 0.103716,-0.73162 0.189135,-1.087788 l 7.812444,-5.315955 -1.302763,-1.367358 c 0.301361,-0.08063 0.60945,-0.145394 0.922424,-0.194304 l 7.981942,6.184119 1.052649,-1.947685 z" />
  </g>
</svg>
